<svg width="14" height="15" viewBox="0 0 14 15" fill="none" xmlns="http://www.w3.org/2000/svg">
<path d="M12.9166 14.2006L8.05563 9.33959C7.66984 9.64822 7.22617 9.89256 6.72464 10.0726C6.22311 10.2526 5.68943 10.3427 5.1236 10.3427C3.72188 10.3427 2.53569 9.85707 1.56503 8.8859C0.594377 7.91472 0.108791 6.72854 0.108277 5.32733C0.107762 3.92613 0.593348 2.73994 1.56503 1.76877C2.53672 0.797598 3.72291 0.312012 5.1236 0.312012C6.52429 0.312012 7.71073 0.797598 8.68293 1.76877C9.65513 2.73994 10.1405 3.92613 10.1389 5.32733C10.1389 5.89316 10.0489 6.42685 9.86886 6.92838C9.68883 7.42991 9.44449 7.87357 9.13585 8.25937L13.9969 13.1204L12.9166 14.2006ZM5.1236 8.79948C6.08808 8.79948 6.90802 8.46204 7.58342 7.78715C8.25882 7.11227 8.59626 6.29233 8.59574 5.32733C8.59523 4.36233 8.25779 3.54265 7.58342 2.86828C6.90905 2.19391 6.08911 1.85622 5.1236 1.85519C4.15808 1.85416 3.3384 2.19186 2.66455 2.86828C1.99069 3.54471 1.653 4.36439 1.65145 5.32733C1.64991 6.29027 1.98761 7.11021 2.66455 7.78715C3.34149 8.46409 4.16117 8.80154 5.1236 8.79948Z" fill="#FCFCFC"/>
</svg>
